<svg xmlns="http://www.w3.org/2000/svg" height="24" viewBox="0 -960 960 960" width="24"><path d="m694.846-166.923 113.616-111.846-25.077-25.077-88.539 87.307-38.231-39-25.077 25.308 63.308 63.308ZM270.769-610.769h418.462v-40H270.769v40ZM720-75.384q-66.846 0-113.423-46.577T560-235.385q0-66.846 46.577-113.423T720-395.385q66.846 0 113.423 46.577T880-235.385q0 66.847-46.577 113.424Q786.846-75.384 720-75.384ZM160-129.23v-606.155q0-26.846 18.884-45.731Q197.769-800 224.615-800h510.77q26.846 0 45.731 18.884Q800-762.231 800-735.385v237.77q-9.769-3.616-19.385-6.154-9.615-2.539-20.615-4v-227.616q0-9.23-7.692-16.923Q744.615-760 735.385-760h-510.77q-9.23 0-16.923 7.692Q200-744.615 200-735.385V-198h253.769q2.692 16.385 7.039 32.077 4.346 15.692 12.115 29.923l-1.384 1.385-45.385-33.077-53.846 38.462-53.847-38.462-53.846 38.462-53.846-38.462L160-129.23Zm110.769-180.001h188.385q2.231-11 5.538-20.615 3.308-9.616 7.693-19.385H270.769v40Zm0-150.769h292.462q19.538-15.462 41.961-25.808 22.424-10.346 47.885-14.192H270.769v40ZM200-198v-562 562Z"/></svg>